<svg width="36" height="44" viewBox="0 0 36 44" fill="none" xmlns="http://www.w3.org/2000/svg">
<path d="M18 0C8.07526 0 0 7.08005 0 15.7826C0 21.8189 1.81458 23.9153 16.6395 43.3624C16.9431 43.7608 17.4535 44 18 44C18.5465 44 19.0568 43.7608 19.3605 43.3625C34.1848 23.9221 36 21.7559 36 15.7827C36 7.08005 27.9247 0 18 0ZM18 22.9565C13.4883 22.9565 9.8182 19.7385 9.8182 15.7826C9.8182 11.8267 13.4883 8.6087 18 8.6087C22.5117 8.6087 26.1818 11.8267 26.1818 15.7826C26.1818 19.7385 22.5117 22.9565 18 22.9565Z" fill="#4A27C9"/>
</svg>
