<svg width="31" height="31" viewBox="0 0 31 31" fill="none" xmlns="http://www.w3.org/2000/svg">
<g clip-path="url(#clip0_8_337)">
<path fill-rule="evenodd" clip-rule="evenodd" d="M15.4995 3.875C26.3732 3.875 30.6837 14.3346 30.8615 14.7812C31.045 15.2428 31.045 15.7572 30.8615 16.2188C30.6837 16.6654 26.3732 27.125 15.4995 27.125C4.62578 27.125 0.315327 16.6654 0.137562 16.2193C-0.0460166 15.7577 -0.0460166 15.2428 0.137562 14.7812C0.315327 14.3346 4.62578 3.875 15.4995 3.875ZM15.5 22C19.0899 22 22 19.0899 22 15.5C22 11.9101 19.0899 9 15.5 9C11.9101 9 9 11.9101 9 15.5C9 19.0899 11.9101 22 15.5 22Z" fill="white"/>
</g>
<defs>
<clipPath id="clip0_8_337">
<rect width="31" height="31" fill="white"/>
</clipPath>
</defs>
</svg>
